<?xml version="1.0" encoding="UTF-8" standalone="no"?>
<!DOCTYPE svg PUBLIC "-//W3C//DTD SVG 20010904//EN"
              "http://www.w3.org/TR/2001/REC-SVG-20010904/DTD/svg10.dtd">

<svg style="fill:gray" xmlns="http://www.w3.org/2000/svg"
     viewBox="0 0 1725 1894">
  <path d="M 307.00,65.08
           C 307.00,65.08 393.00,65.08 393.00,65.08
             393.00,65.08 655.00,65.08 655.00,65.08
             655.00,65.08 1447.00,65.08 1447.00,65.08
             1471.04,65.04 1499.99,72.70 1522.00,82.15
             1545.01,92.03 1566.29,106.30 1584.00,124.00
             1602.18,142.18 1616.91,161.52 1627.69,185.00
             1663.48,262.95 1649.32,352.43 1591.83,416.00
             1573.66,436.09 1551.17,451.36 1527.00,463.24
             1504.02,474.54 1478.40,480.34 1453.00,482.09
             1453.00,482.09 1441.00,483.00 1441.00,483.00
             1441.00,483.00 858.00,483.00 858.00,483.00
             858.00,483.00 275.00,483.00 275.00,483.00
             255.96,482.97 231.08,478.36 213.00,472.33
             190.74,464.92 169.56,453.99 151.00,439.58
             73.22,379.20 48.40,274.09 89.31,185.00
             111.50,136.67 154.31,97.18 204.00,78.42
             227.34,69.61 238.23,68.80 262.00,65.08
             262.00,65.08 307.00,65.08 307.00,65.08 Z
           M 1071.00,496.00
           C 1071.00,496.00 1071.00,705.00 1071.00,705.00
             1071.00,706.88 1071.12,710.11 1070.40,711.79
             1068.80,715.52 1055.99,721.87 1052.00,724.15
             1052.00,724.15 993.00,758.20 993.00,758.20
             993.00,758.20 896.00,814.15 896.00,814.15
             896.00,814.15 871.00,828.58 871.00,828.58
             868.06,830.27 862.24,834.18 859.00,833.97
             855.93,833.78 849.85,829.68 847.00,828.01
             847.00,828.01 823.00,814.20 823.00,814.20
             823.00,814.20 740.00,766.28 740.00,766.28
             740.00,766.28 674.00,728.28 674.00,728.28
             670.38,726.22 655.68,718.28 654.02,715.62
             652.78,713.63 653.00,710.31 653.00,708.00
             653.00,708.00 653.00,496.00 653.00,496.00
             653.00,496.00 1071.00,496.00 1071.00,496.00 Z
           M 284.00,548.21
           C 284.00,548.21 296.00,548.91 296.00,548.91
             322.94,550.80 346.43,557.03 371.00,568.31
             371.00,568.31 420.00,595.99 420.00,595.99
             420.00,595.99 487.00,634.58 487.00,634.58
             487.00,634.58 920.00,884.58 920.00,884.58
             941.64,896.99 977.77,916.43 996.00,931.26
             1031.68,960.28 1056.29,999.45 1067.37,1044.00
             1070.15,1055.15 1072.98,1071.61 1073.00,1083.00
             1073.00,1083.00 1073.00,1106.00 1073.00,1106.00
             1072.97,1123.45 1067.18,1148.51 1061.31,1165.00
             1037.78,1231.05 982.86,1280.14 915.00,1297.11
             893.96,1302.37 875.49,1303.25 854.00,1303.00
             854.00,1303.00 835.00,1301.13 835.00,1301.13
             791.03,1295.02 765.29,1278.92 728.00,1257.01
             728.00,1257.01 649.00,1211.42 649.00,1211.42
             649.00,1211.42 294.00,1006.43 294.00,1006.43
             294.00,1006.43 202.00,953.42 202.00,953.42
             169.61,934.63 144.16,921.00 119.80,891.00
             60.36,817.77 55.28,715.92 108.98,638.00
             118.14,624.71 128.84,611.95 141.00,601.29
             167.23,578.28 198.02,561.95 232.00,553.88
             241.15,551.71 250.64,550.06 260.00,549.17
             260.00,549.17 270.00,548.21 270.00,548.21
             270.00,548.21 284.00,548.21 284.00,548.21 Z
           M 921.00,814.15
           C 921.00,814.15 993.00,772.58 993.00,772.58
             993.00,772.58 1237.00,631.72 1237.00,631.72
             1237.00,631.72 1309.00,590.15 1309.00,590.15
             1309.00,590.15 1350.00,567.31 1350.00,567.31
             1373.18,556.69 1397.63,550.69 1423.00,548.91
             1423.00,548.91 1433.00,548.00 1433.00,548.00
             1461.66,547.67 1490.35,552.79 1517.00,563.45
             1536.46,571.23 1557.10,583.51 1573.00,597.13
             1591.86,613.28 1607.22,631.42 1619.57,653.00
             1660.14,723.86 1655.35,809.87 1609.66,877.00
             1582.84,916.40 1550.85,933.98 1511.00,956.85
             1511.00,956.85 1441.00,997.28 1441.00,997.28
             1441.00,997.28 1167.00,1155.42 1167.00,1155.42
             1167.00,1155.42 1083.00,1203.85 1083.00,1203.85
             1074.89,1208.50 1050.02,1223.95 1043.00,1226.00
             1043.00,1226.00 1058.69,1201.00 1058.69,1201.00
             1069.21,1181.60 1076.82,1161.55 1081.58,1140.00
             1086.21,1119.01 1086.24,1102.22 1086.00,1081.00
             1085.85,1068.88 1081.79,1047.82 1078.42,1036.00
             1065.83,991.82 1042.35,954.10 1007.00,924.44
             987.19,907.82 971.79,900.22 950.00,887.58
             950.00,887.58 915.00,867.28 915.00,867.28
             915.00,867.28 889.00,852.28 889.00,852.28
             883.82,849.33 877.11,846.19 873.00,842.00
             873.00,842.00 921.00,814.15 921.00,814.15 Z
           M 680.00,1243.72
           C 680.00,1243.72 705.00,1258.36 705.00,1258.36
             705.00,1258.36 716.00,1267.20 716.00,1267.20
             716.00,1267.20 732.00,1278.97 732.00,1278.97
             744.19,1287.28 762.15,1296.35 776.00,1301.58
             836.98,1324.60 911.48,1320.80 969.00,1289.69
             979.37,1284.08 989.63,1277.50 999.00,1270.35
             999.00,1270.35 1013.00,1259.04 1013.00,1259.04
             1013.00,1259.04 1044.00,1240.80 1044.00,1240.80
             1050.25,1237.08 1064.90,1228.24 1071.00,1226.00
             1071.00,1226.00 1071.00,1622.00 1071.00,1622.00
             1071.00,1622.00 1069.96,1634.00 1069.96,1634.00
             1069.96,1634.00 1069.96,1642.00 1069.96,1642.00
             1068.12,1659.92 1063.93,1678.16 1057.58,1695.00
             1048.30,1719.60 1034.47,1742.47 1016.83,1762.00
             949.79,1836.23 835.70,1852.10 751.00,1799.05
             729.05,1785.30 710.47,1768.77 694.89,1748.00
             671.51,1716.82 653.06,1671.40 653.00,1632.00
             653.00,1632.00 653.00,1544.00 653.00,1544.00
             653.00,1544.00 653.00,1229.00 653.00,1229.00
             659.23,1230.97 673.42,1239.98 680.00,1243.72 Z" />
</svg>
